<?xml version="1.0" standalone="no"?>
<!DOCTYPE svg PUBLIC "-//W3C//DTD SVG 20010904//EN"
 "http://www.w3.org/TR/2001/REC-SVG-20010904/DTD/svg10.dtd">
<svg version="1.0" xmlns="http://www.w3.org/2000/svg"
 width="1468.000000pt" height="1468.000000pt" viewBox="0 0 1468.000000 1468.000000"
 preserveAspectRatio="xMidYMid meet">
<metadata>
Created by potrace 1.11, written by Peter Selinger 2001-2013
</metadata>
<g transform="translate(0.000000,1468.000000) scale(0.100000,-0.100000)"
fill="#000000" stroke="none">
<path d="M4110 10653 c-36 -8 -66 -19 -68 -24 -2 -5 -10 -9 -17 -9 -24 0 -94
-79 -120 -135 -29 -64 -34 -87 -40 -178 -3 -38 -7 -72 -10 -77 -3 -5 0 -12 6
-15 5 -4 8 -12 6 -19 -7 -17 11 -112 30 -166 21 -57 67 -130 158 -250 199
-264 232 -307 253 -330 12 -14 22 -28 22 -32 0 -3 6 -13 13 -20 7 -7 63 -78
123 -158 201 -263 507 -664 538 -705 17 -22 34 -41 39 -43 4 -2 7 -10 7 -17 0
-7 4 -15 9 -17 5 -1 52 -59 105 -128 53 -69 102 -132 109 -140 7 -9 33 -42 57
-75 25 -33 47 -62 50 -65 10 -8 274 -351 285 -369 6 -9 13 -18 16 -21 4 -3 48
-59 99 -125 51 -66 96 -122 99 -125 3 -3 11 -12 16 -22 6 -9 57 -76 115 -150
57 -73 108 -137 112 -143 4 -5 27 -35 51 -65 24 -30 70 -91 103 -135 32 -44
65 -86 71 -95 7 -8 40 -51 72 -95 33 -44 64 -84 69 -90 30 -37 82 -135 82
-155 0 -48 -1 -48 -145 -65 -22 -3 -71 -7 -110 -10 -64 -5 -91 -7 -210 -20
-22 -3 -65 -7 -95 -10 -53 -5 -85 -9 -160 -20 -19 -3 -55 -7 -80 -10 -25 -3
-54 -7 -65 -9 -11 -2 -45 -7 -75 -10 -30 -4 -66 -8 -80 -10 -71 -12 -168 -27
-195 -31 -62 -8 -162 -25 -215 -35 -30 -6 -71 -13 -90 -16 -54 -8 -76 -12
-230 -40 -47 -9 -94 -18 -105 -20 -11 -2 -36 -6 -55 -9 -19 -3 -47 -7 -62 -10
-16 -3 -40 -7 -55 -10 -16 -3 -44 -8 -63 -11 -19 -3 -43 -7 -52 -10 -10 -3
-30 -7 -45 -10 -31 -5 -134 -23 -173 -31 -14 -2 -44 -8 -68 -14 -23 -5 -59
-12 -80 -15 -68 -10 -82 -13 -90 -18 -4 -2 -28 -7 -52 -10 -25 -3 -56 -8 -70
-11 -22 -5 -60 -13 -140 -30 -60 -12 -127 -25 -150 -29 -14 -3 -25 -5 -25 -6
0 -1 -10 -3 -22 -6 -12 -2 -64 -13 -115 -25 -125 -29 -307 -69 -338 -75 -14
-3 -33 -7 -42 -10 -10 -3 -44 -7 -75 -10 -179 -13 -328 82 -492 315 -19 28
-156 286 -151 286 1 0 -1 7 -4 15 -29 81 -37 108 -41 124 -2 10 -9 33 -14 50
-6 17 -13 42 -15 56 -84 411 -175 566 -371 625 -71 21 -203 10 -251 -22 -13
-8 -24 -12 -24 -8 0 14 -66 -49 -87 -84 -18 -29 -61 -136 -69 -173 -1 -5 -2
-9 -3 -10 -2 -2 -4 -14 -7 -28 -2 -14 -8 -36 -13 -50 -5 -14 -12 -41 -15 -60
-3 -19 -8 -45 -10 -56 -18 -90 -28 -168 -40 -299 -4 -38 -9 -81 -11 -95 -2
-14 -6 -50 -10 -80 -3 -30 -8 -75 -11 -100 -2 -25 -7 -72 -9 -105 -3 -33 -8
-78 -11 -100 -2 -22 -7 -66 -9 -98 -10 -121 -23 -157 -58 -157 -23 0 -128 33
-150 47 -6 4 -16 8 -22 9 -11 2 -147 51 -185 67 -14 6 -27 11 -30 12 -29 7
-117 40 -126 46 -6 5 -14 6 -17 2 -4 -3 -12 -1 -19 4 -7 6 -31 14 -53 18 -22
5 -47 10 -55 12 -25 7 -233 7 -277 0 -149 -22 -231 -75 -266 -172 -43 -122 -6
-206 143 -326 61 -50 196 -139 209 -139 6 0 11 -4 11 -9 0 -5 8 -11 17 -14 10
-4 41 -20 68 -37 28 -17 58 -33 67 -37 10 -3 18 -9 18 -14 0 -5 8 -9 17 -9 9
0 24 -6 32 -14 9 -7 43 -28 76 -46 33 -18 75 -43 92 -57 l33 -24 -36 -50 c-47
-64 -57 -109 -34 -143 53 -81 89 -91 370 -102 85 -3 171 -7 190 -10 19 -2 58
-7 85 -10 28 -4 60 -7 73 -8 12 -1 22 -4 22 -8 0 -5 7 -8 15 -8 13 0 189 -63
253 -90 37 -16 57 -24 327 -130 143 -56 269 -105 280 -111 74 -33 561 -209
625 -224 3 -1 12 -4 20 -8 15 -6 91 -26 100 -27 3 0 30 -7 60 -16 64 -19 200
-27 238 -13 63 22 121 110 117 179 -3 57 -19 117 -36 139 -11 13 -19 28 -19
33 0 10 -28 37 -81 80 -39 30 -44 35 -154 120 -147 114 -173 137 -155 139 8 0
22 2 30 4 27 5 174 20 285 29 182 15 333 24 555 31 207 7 280 12 450 30 25 3
73 7 107 10 34 2 81 7 104 10 23 3 63 7 88 10 25 2 75 7 111 10 36 3 81 8 100
10 19 2 62 7 95 10 33 3 83 8 110 11 28 3 66 7 85 8 32 3 124 13 210 21 19 2
64 7 100 10 36 3 79 7 95 10 27 3 98 10 205 20 58 6 153 16 185 20 17 2 66 7
110 11 99 8 97 8 112 17 6 4 14 3 18 -3 4 -6 10 -8 14 -5 9 5 77 15 141 20 25
2 72 6 105 10 33 3 83 8 110 11 28 3 61 7 75 9 14 2 57 6 95 10 39 3 88 8 110
10 55 6 154 17 190 20 17 1 64 6 105 10 41 3 91 8 110 10 19 2 69 7 110 11
117 13 189 9 270 -15 41 -12 82 -23 90 -26 8 -2 80 -22 160 -45 80 -23 152
-43 160 -45 8 -2 38 -11 65 -20 28 -10 57 -19 65 -20 8 -1 22 -4 30 -7 21 -8
119 -36 155 -44 17 -4 35 -9 40 -13 6 -3 15 -6 20 -7 6 -1 73 -20 150 -43 77
-23 151 -44 164 -47 14 -3 28 -7 33 -10 4 -3 16 -7 25 -9 10 -2 59 -16 108
-30 85 -26 171 -51 205 -60 8 -2 47 -13 85 -25 39 -12 93 -28 120 -35 115 -31
171 -47 180 -53 6 -4 19 -8 30 -9 11 -2 31 -7 45 -12 30 -11 127 -40 155 -46
11 -2 81 -23 155 -45 74 -22 160 -47 190 -56 30 -8 90 -26 132 -39 42 -14 84
-25 93 -25 8 0 23 -4 33 -9 18 -10 300 -92 317 -93 6 0 18 -4 28 -10 10 -5 26
-11 35 -13 9 -2 73 -20 142 -40 69 -20 130 -38 135 -39 6 -2 17 -5 25 -8 13
-5 50 -16 165 -48 17 -5 62 -18 100 -30 39 -11 79 -23 90 -25 23 -5 148 -43
185 -55 14 -5 58 -17 98 -27 69 -17 75 -17 160 1 119 24 109 22 184 45 l66 21
-2 113 c-3 161 -20 191 -175 317 -24 19 -51 42 -61 50 -10 8 -50 40 -88 70
-39 30 -72 62 -75 72 -5 18 89 167 125 199 13 10 37 30 55 42 17 13 29 28 25
34 -18 28 -334 182 -471 229 -60 20 -81 22 -241 19 -217 -4 -277 13 -160 44
45 12 100 53 118 88 5 10 17 52 26 94 14 62 23 81 51 108 53 49 56 61 35 109
l-19 42 22 5 c39 8 52 8 79 1 22 -6 30 -18 42 -59 15 -53 23 -87 32 -142 3
-16 9 -43 14 -60 6 -16 11 -42 12 -57 3 -33 24 -44 37 -19 6 10 13 71 16 137
6 123 12 171 21 186 8 13 40 -18 54 -53 16 -38 26 -30 46 39 19 67 27 78 57
85 12 3 54 15 92 26 39 12 83 24 99 27 16 2 37 9 47 15 11 5 19 7 19 5 0 -3
18 1 40 9 22 8 42 14 45 15 3 0 6 0 8 1 1 0 9 2 17 4 8 1 44 11 80 20 36 9 72
19 80 20 8 2 49 14 90 25 41 12 84 24 95 26 26 5 316 84 335 91 8 4 20 7 25 8
6 1 12 3 15 4 3 2 12 4 20 6 20 5 246 71 290 85 19 6 42 13 50 15 60 15 644
209 705 235 11 4 43 15 70 25 28 9 59 21 70 26 11 4 44 18 73 29 29 11 76 32
105 47 28 15 55 26 60 25 4 -1 7 2 7 8 0 5 4 10 9 10 8 0 151 94 305 200 22
14 113 106 131 131 27 37 55 114 55 149 0 62 -26 111 -84 158 -29 23 -61 42
-70 42 -9 0 -16 4 -16 8 0 5 -32 21 -70 36 l-71 28 -462 3 c-282 2 -472 7
-489 14 -14 5 -48 25 -75 44 -53 38 -86 50 -183 66 -36 6 -78 13 -95 16 -139
25 -327 25 -619 0 -28 -3 -82 -7 -121 -10 -38 -2 -95 -7 -125 -10 -30 -2 -89
-7 -130 -10 -41 -2 -75 -5 -75 -5 0 -1 -22 -3 -50 -5 -183 -14 -224 -17 -260
-20 -57 -6 -190 -16 -255 -20 -30 -2 -89 -6 -130 -10 -41 -3 -102 -8 -135 -10
-122 -10 -191 -15 -240 -20 -56 -5 -167 -13 -265 -20 -36 -3 -99 -7 -140 -10
-134 -11 -163 -13 -275 -20 -171 -11 -170 -11 -208 21 -19 16 -43 42 -53 58
-41 61 -51 78 -119 186 -38 62 -95 138 -127 170 -57 58 -139 107 -158 95 -10
-6 20 -54 60 -95 82 -84 235 -288 224 -299 -2 -2 0 -9 6 -15 10 -14 21 -106
11 -106 -3 0 -21 22 -38 48 -18 26 -46 61 -63 79 -16 18 -30 37 -30 42 0 6 -3
11 -7 11 -5 1 -30 21 -58 47 -46 41 -149 115 -167 119 -5 1 -9 2 -10 3 -2 2
-13 4 -26 7 -21 4 -22 2 -11 -19 7 -12 43 -53 80 -92 142 -148 218 -263 226
-341 3 -41 0 -49 -31 -80 -45 -45 -62 -37 -108 53 -41 82 -66 121 -96 151
l-23 24 -247 -7 c-257 -6 -382 -11 -467 -19 -117 -10 -190 -18 -196 -22 -4 -2
-24 -6 -45 -10 -22 -3 -77 -15 -124 -25 -104 -25 -178 -26 -220 -4 -17 9 -86
70 -153 136 -111 108 -120 121 -103 131 18 10 106 28 216 43 88 12 115 16 145
22 17 2 39 6 50 7 70 10 164 38 200 62 25 17 45 59 52 113 4 37 34 100 68 146
27 36 25 41 -23 92 -21 22 -51 66 -66 99 -60 126 -72 147 -101 169 -30 22
-176 86 -205 89 -9 1 -20 5 -27 9 -6 4 -28 9 -49 12 -22 3 -50 7 -64 10 -29 7
-242 6 -280 0 -14 -2 -43 -7 -65 -10 -22 -2 -53 -7 -70 -10 -16 -2 -48 -7 -70
-10 -22 -3 -47 -8 -55 -11 -8 -3 -32 -8 -53 -11 -45 -6 -72 -11 -72 -13 0 -2
-20 -6 -65 -14 -19 -3 -73 -13 -120 -22 -47 -9 -102 -14 -122 -11 -40 5 -113
51 -198 123 -30 25 -69 58 -86 73 -37 31 -185 167 -270 248 -33 32 -146 140
-250 239 -104 100 -209 200 -234 224 -25 23 -128 123 -230 220 -102 98 -198
191 -215 206 -16 15 -84 77 -150 139 -66 62 -144 135 -174 161 -30 27 -69 63
-87 79 -18 17 -56 50 -85 75 -29 25 -57 50 -63 55 -76 72 -339 266 -476 352
-239 151 -382 188 -560 146z"/>
<path d="M8645 8831 c-3 -6 23 -45 57 -88 78 -97 108 -139 108 -152 0 -5 3
-11 8 -13 10 -4 72 -128 72 -144 0 -8 5 -14 10 -14 6 0 10 -6 10 -13 0 -8 6
-27 14 -43 8 -16 35 -78 60 -139 68 -162 75 -172 91 -145 8 12 8 123 1 166 -7
43 -66 203 -77 210 -5 3 -9 14 -9 25 0 10 -3 19 -8 19 -4 0 -15 17 -24 38 -34
79 -120 191 -183 237 -22 16 -43 34 -46 38 -3 5 -8 8 -10 7 -2 -1 -17 3 -32 9
-34 13 -34 13 -42 2z"/>
<path d="M8438 8743 c-16 -2 -28 -8 -28 -13 0 -5 35 -33 78 -63 78 -55 177
-149 213 -203 99 -145 152 -343 161 -598 2 -51 8 -91 14 -93 16 -5 64 47 84
90 20 43 12 113 -25 216 -8 23 -15 45 -16 49 -3 15 -7 28 -15 47 -4 11 -8 23
-9 28 -2 4 -4 9 -5 12 -1 3 -3 8 -5 13 -2 10 -14 38 -35 89 -10 23 -16 44 -12
47 3 3 0 6 -6 6 -7 0 -11 3 -10 8 4 11 -95 202 -104 202 -4 0 -8 6 -8 13 -1
21 -83 104 -125 125 -42 22 -102 32 -147 25z"/>
<path d="M11910 5564 c0 -10 54 -99 62 -102 4 -2 8 -8 8 -12 0 -5 11 -26 26
-47 93 -137 145 -327 148 -545 1 -21 4 -38 8 -38 4 0 5 -7 1 -16 -13 -35 22
-7 41 32 25 51 33 210 16 296 -12 64 -86 238 -101 238 -4 0 -10 8 -13 18 -14
43 -196 208 -196 176z"/>
<path d="M11737 5453 c-5 -5 19 -50 33 -63 14 -13 99 -130 126 -175 97 -160
108 -221 90 -485 -2 -19 -1 -38 1 -43 18 -34 133 163 138 236 1 23 0 46 -3 52
-3 5 -7 20 -8 33 -5 41 -93 209 -142 270 -58 72 -118 129 -154 148 -44 23 -75
33 -81 27z"/>
</g>
</svg>
